<?xml version="1.0" standalone="no"?><!DOCTYPE svg PUBLIC "-//W3C//DTD SVG 1.1//EN" "http://www.w3.org/Graphics/SVG/1.1/DTD/svg11.dtd"><svg t="1717423407902" class="icon" viewBox="0 0 1024 1024" version="1.1" xmlns="http://www.w3.org/2000/svg" p-id="938" xmlns:xlink="http://www.w3.org/1999/xlink" width="200" height="200"><path d="M358.253714 0h-247.222857A111.177143 111.177143 0 0 0 0 111.104v247.076571a111.177143 111.177143 0 0 0 111.104 111.177143h247.149714a111.177143 111.177143 0 0 0 111.030857-111.177143V111.177143A111.177143 111.177143 0 0 0 358.253714 0z m37.010286 358.180571a37.083429 37.083429 0 0 1-37.010286 37.010286h-247.222857a37.083429 37.083429 0 0 1-36.937143-37.010286V111.177143c0-20.48 16.603429-37.083429 37.010286-37.083429h247.149714c20.406857 0 37.010286 16.603429 37.010286 37.083429v247.076571z m-37.010286 196.534858h-247.222857A111.177143 111.177143 0 0 0 0 665.819429v247.076571A111.177143 111.177143 0 0 0 111.104 1024h247.149714a111.177143 111.177143 0 0 0 111.030857-111.104V665.819429a111.177143 111.177143 0 0 0-111.030857-111.177143z m37.010286 358.180571c0 20.48-16.603429 37.010286-37.010286 37.010286h-247.222857a37.083429 37.083429 0 0 1-36.937143-37.010286V665.819429c0-20.48 16.603429-37.083429 37.010286-37.083429h247.149714c20.406857 0 37.010286 16.603429 37.010286 37.083429v247.076571zM912.822857 0H665.746286a111.177143 111.177143 0 0 0-111.030857 111.104v247.076571a111.177143 111.177143 0 0 0 111.030857 111.177143h247.222857A111.177143 111.177143 0 0 0 1024 358.107429V111.177143A111.177143 111.177143 0 0 0 912.896 0z m37.083429 358.180571a37.083429 37.083429 0 0 1-37.083429 37.010286H665.746286a37.083429 37.083429 0 0 1-37.010286-37.010286V111.177143c0-20.48 16.603429-37.083429 37.010286-37.083429h247.222857c20.333714 0 37.010286 16.603429 37.010286 37.083429v247.076571z m-37.083429 196.534858H665.746286a111.177143 111.177143 0 0 0-111.030857 111.104v247.076571A111.177143 111.177143 0 0 0 665.746286 1024h247.222857A111.177143 111.177143 0 0 0 1024 912.896V665.819429a111.177143 111.177143 0 0 0-111.104-111.177143z m37.083429 358.180571c0 20.48-16.676571 37.010286-37.083429 37.010286H665.746286a37.083429 37.083429 0 0 1-37.010286-37.010286V665.819429c0-20.48 16.603429-37.083429 37.010286-37.083429h247.222857c20.333714 0 37.010286 16.603429 37.010286 37.083429v247.076571z" fill="#43978D" p-id="939"></path></svg>